<svg width="16" height="16" viewBox="0 0 16 16" fill="none" xmlns="http://www.w3.org/2000/svg">
<g clip-path="url(#clip0_60_142)">
<path d="M2.35863 0.179324C1.6 0.620703 1.43449 1.65519 2.0138 2.33105C2.49656 2.91036 3.36552 2.93794 3.91725 2.40001C4.4 1.91725 4.4138 1.00691 3.97242 0.482772C3.58621 0.0551858 2.82759 -0.0827451 2.35863 0.179324Z" fill="#ECFE72"/>
<path d="M13.2828 1.3379C13.1586 1.37928 13.1035 1.7379 13.1035 2.46893C13.1035 4.27583 12.3173 5.39307 10.6483 6.01376C9.76553 6.34479 9.58622 6.5379 10.2759 6.41376C11.6138 6.19307 12.8276 5.3241 13.4207 4.20686C13.7793 3.50341 13.931 1.65514 13.6414 1.43445C13.531 1.35169 13.3655 1.31031 13.2828 1.3379Z" fill="#ECFE72"/>
<path d="M10.8414 2.56557C10.5379 2.85522 10.5655 3.02074 10.9793 3.40695C11.2966 3.6966 11.3379 3.82074 11.2828 4.42763C11.2 5.28281 11.3379 5.17246 11.5172 4.23453C11.6552 3.55867 11.6828 3.51729 12.1103 3.47591C12.5241 3.43453 12.5517 3.39315 12.5517 2.88281V2.34488H11.8069C11.3103 2.34488 10.9793 2.41384 10.8414 2.56557Z" fill="#ECFE72"/>
<path d="M14.4 2.8414C14.3448 3.14485 14.3724 3.37933 14.4552 3.4345C14.5241 3.47588 14.6207 3.66898 14.6345 3.86209C14.6897 4.16553 14.7724 4.20691 15.2828 4.24829L15.8621 4.28967V3.32416V2.34485H15.1724C14.4966 2.34485 14.4966 2.34485 14.4 2.8414Z" fill="#ECFE72"/>
<path d="M1.46207 3.61381C1.28276 3.86208 1.24138 4.37243 1.24138 6.27588C1.24138 8.56553 1.25517 8.64829 1.55862 8.93794C2.05517 9.40691 2.64828 9.46208 3.36552 9.11725C4.1931 8.71725 4.27586 8.45519 3.61379 8.33105C2.91034 8.19312 2.52414 7.91725 2.35862 7.40691C2.17931 6.8276 1.90345 5.2276 1.97241 5.15863C2 5.13105 2.22069 5.60001 2.46897 6.20691C2.71724 6.81381 3.02069 7.37932 3.11724 7.46208C3.22759 7.55863 3.98621 7.73794 4.78621 7.87588C6.15172 8.11036 6.27586 8.11036 6.51034 7.90346C6.8 7.64139 6.84138 7.13105 6.5931 6.92415C6.49655 6.84139 6.01379 6.71726 5.51724 6.6345C3.93103 6.35863 4.01379 6.41381 3.57241 5.4207C3.35172 4.92415 3.18621 4.48277 3.21379 4.45519C3.25517 4.4276 3.51724 4.71726 3.8069 5.10346C4.53793 6.05519 4.68965 6.01381 4.68965 4.85519C4.68965 3.4207 4.56552 3.31036 2.96552 3.31036C1.77931 3.31036 1.65517 3.33794 1.46207 3.61381Z" fill="#ECFE72"/>
<path d="M10.1241 3.8897C10.0552 3.98625 10.0276 4.23452 10.0414 4.42763C10.0552 4.66211 9.93104 4.96556 9.71035 5.22763C9.25518 5.76556 9.57242 5.82073 10.1931 5.29659C10.6759 4.89659 10.9104 4.04142 10.6069 3.84832C10.3448 3.6828 10.2483 3.69659 10.1241 3.8897Z" fill="#ECFE72"/>
<path d="M7.86207 6.53794C7.47587 6.68967 7.39311 6.78622 7.42069 7.04829C7.43449 7.2276 7.47587 7.55863 7.48966 7.79312C7.51725 8.13794 7.57242 8.20691 7.86207 8.20691C8.13794 8.20691 8.22069 8.11036 8.31725 7.71036C8.38621 7.37932 8.55173 7.15863 8.77242 7.04829C9.2138 6.85518 9.15863 6.4276 8.68966 6.38622C8.49656 6.37243 8.12414 6.44139 7.86207 6.53794Z" fill="#ECFE72"/>
<path d="M9.93103 7.15864C9.93103 7.2276 9.71034 7.54484 9.44827 7.86209L8.96552 8.4414L8.9931 10.8828L9.03448 13.3104L9.46207 13.4345C9.87586 13.5586 9.90345 13.6138 9.97241 14.4C10.0414 15.1173 10.1103 15.2966 10.469 15.6138C11.0207 16.1104 11.5724 16.1104 12.1241 15.6414C12.5241 15.3104 12.5517 15.2138 12.5517 14.4V13.5173H13.1724C13.7655 13.5173 13.7931 13.5311 13.7931 13.9311V14.3448H14.8276H15.8621V13.4483V12.5517H15.1448C14.3034 12.5517 14.0276 12.4138 14.0965 12.0552C14.1379 11.8345 14.2897 11.7793 15.0069 11.7517C15.8483 11.7104 15.8621 11.7104 15.8621 11.3104V10.8966H14.6897C13.7655 10.8966 13.4897 10.8552 13.4345 10.6897C13.2552 10.2483 13.6414 10.069 14.7724 10.069H15.8621V8.68967V7.31036H14.3586H12.8414L13.0483 7.68278C13.1448 7.90347 13.2414 8.2345 13.2414 8.4276C13.2414 8.85519 12.7172 9.37933 12.2897 9.37933C11.9172 9.37933 11.3103 8.80002 11.3103 8.4276C11.3103 8.24829 11.1448 8.05519 10.8965 7.93105C10.6069 7.77933 10.4828 7.61381 10.4828 7.37933C10.4828 7.13105 10.4138 7.0345 10.2069 7.0345C10.0552 7.0345 9.93103 7.08967 9.93103 7.15864ZM11.8483 9.44829C12.8828 9.97243 12.4414 11.5862 11.2552 11.5862C10.8965 11.5862 10.7034 11.4897 10.4138 11.1448C9.97241 10.6207 10.0138 10.0276 10.5655 9.54485C10.9655 9.18622 11.3103 9.15864 11.8483 9.44829Z" fill="#ECFE72"/>
<path d="M11.4207 7.53109C11.6828 7.73798 11.8621 8.00005 11.8621 8.20695C11.8621 8.64833 12.2069 8.92419 12.4828 8.68971C12.8 8.42764 12.731 8.15178 12.2207 7.64143C11.9034 7.32419 11.6276 7.17247 11.3655 7.17247H10.9655L11.4207 7.53109Z" fill="#ECFE72"/>
<path d="M4.56552 8.9793C4.04138 9.65516 3.47587 9.93103 2.64828 9.93103C1.83449 9.93103 1.22759 9.68275 0.896557 9.21378C0.731039 8.96551 0.634488 8.92413 0.455177 9.04827C0.11035 9.26896 0.0965565 9.43447 0.427591 9.86206C1.04828 10.6345 2.4 10.9517 3.64138 10.6069C4.23449 10.4414 5.71035 9.08965 5.62759 8.7862C5.50345 8.44137 4.91035 8.55172 4.56552 8.9793Z" fill="#ECFE72"/>
<path d="M4.34484 10.9793C4.04139 11.1586 3.75173 11.3241 3.69656 11.3379C3.55863 11.3931 2.89656 14.6621 2.89656 15.2552C2.89656 15.9034 3.51725 16.2207 4.04139 15.8345C4.44139 15.5172 5.36553 10.5931 5.00691 10.6345C4.93794 10.6345 4.64828 10.8 4.34484 10.9793Z" fill="#ECFE72"/>
<path d="M1.51725 11.5034C1.51725 11.6138 1.20001 12.5103 0.813804 13.4758C0.0551836 15.3931 0.0413905 15.7655 0.758632 15.9448C1.31036 16.0827 1.58622 15.7103 2.34484 13.7655C3.17242 11.6276 3.20001 11.4483 2.59311 11.4483C2.34484 11.4483 2.00001 11.4069 1.83449 11.3655C1.60001 11.2965 1.51725 11.3379 1.51725 11.5034Z" fill="#ECFE72"/>
</g>
<defs>
<clipPath id="clip0_60_142">
<rect width="16" height="16" fill="white"/>
</clipPath>
</defs>
</svg>
