<svg width="24" height="25" viewBox="0 0 24 25" fill="none" xmlns="http://www.w3.org/2000/svg">
<path d="M14.528 8.03269C14.8222 7.74111 14.8243 7.26624 14.5327 6.97204C14.2411 6.67784 13.7662 6.67573 13.472 6.96731L11.6773 8.7461C11.0013 9.41604 10.4489 9.96359 10.0571 10.4515C9.64963 10.9588 9.35469 11.4737 9.27591 12.0918C9.24136 12.3629 9.24136 12.6371 9.27591 12.9082C9.35469 13.5263 9.64963 14.0412 10.0571 14.5485C10.4489 15.0364 11.0013 15.584 11.6773 16.2539L13.472 18.0327C13.7662 18.3243 14.2411 18.3222 14.5327 18.028C14.8243 17.7338 14.8222 17.2589 14.528 16.9673L12.765 15.22C12.0495 14.5109 11.5587 14.0228 11.2266 13.6093C10.904 13.2076 10.7933 12.9496 10.7639 12.7185C10.7454 12.5734 10.7454 12.4266 10.7639 12.2815C10.7933 12.0504 10.904 11.7924 11.2266 11.3907C11.5587 10.9772 12.0495 10.4891 12.765 9.78L14.528 8.03269Z" fill="white"/>
</svg>
