<svg width="25" height="24" viewBox="0 0 25 24" fill="none" xmlns="http://www.w3.org/2000/svg">
<path d="M5.76115 21.0451L6.20199 20.4383L5.76115 21.0451ZM4.65499 19.9389L5.26175 19.4981L4.65499 19.9389ZM20.7452 19.9389L20.1384 19.4981L20.7452 19.9389ZM19.639 21.0451L20.0798 21.6518L19.639 21.0451ZM19.639 4.95492L20.0798 4.34815L19.639 4.95492ZM20.7452 6.06107L20.1384 6.50191L20.7452 6.06107ZM5.76115 4.95492L6.20199 5.56168H6.20199L5.76115 4.95492ZM4.65499 6.06107L5.26175 6.50191L4.65499 6.06107ZM19.9179 16.0616L19.8006 15.3208H19.8006L19.9179 16.0616ZM15.7616 20.2178L15.0209 20.1005V20.1005L15.7616 20.2178ZM9.70007 13.25C9.28586 13.25 8.95007 13.5858 8.95007 14C8.95007 14.4142 9.28586 14.75 9.70007 14.75V13.25ZM15.7001 14.75C16.1143 14.75 16.4501 14.4142 16.4501 14C16.4501 13.5858 16.1143 13.25 15.7001 13.25V14.75ZM14.9501 5C14.9501 5.41421 15.2859 5.75 15.7001 5.75C16.1143 5.75 16.4501 5.41421 16.4501 5H14.9501ZM16.4501 2C16.4501 1.58579 16.1143 1.25 15.7001 1.25C15.2859 1.25 14.9501 1.58579 14.9501 2H16.4501ZM8.95007 5C8.95007 5.41421 9.28586 5.75 9.70007 5.75C10.1143 5.75 10.4501 5.41421 10.4501 5H8.95007ZM10.4501 2C10.4501 1.58579 10.1143 1.25 9.70007 1.25C9.28586 1.25 8.95007 1.58579 8.95007 2H10.4501ZM21.6711 16L22.4207 16.0257L21.6711 16ZM3.729 10L2.97944 9.97432L3.729 10ZM21.6711 10L22.4207 9.97432L21.6711 10ZM12.7001 21.25C10.8085 21.25 9.45007 21.249 8.39812 21.135C7.36021 21.0225 6.70999 20.8074 6.20199 20.4383L5.32031 21.6518C6.12663 22.2377 7.07101 22.5 8.23655 22.6263C9.38805 22.751 10.8419 22.75 12.7001 22.75V21.25ZM2.95007 13C2.95007 14.8582 2.94904 16.312 3.0738 17.4635C3.20008 18.6291 3.4624 19.5734 4.04823 20.3798L5.26175 19.4981C4.89266 18.9901 4.67752 18.3399 4.56507 17.302C4.4511 16.25 4.45007 14.8916 4.45007 13H2.95007ZM6.20199 20.4383C5.84118 20.1762 5.52389 19.8589 5.26175 19.4981L4.04823 20.3798C4.40288 20.8679 4.83216 21.2972 5.32031 21.6518L6.20199 20.4383ZM20.1384 19.4981C19.8763 19.8589 19.559 20.1762 19.1982 20.4383L20.0798 21.6518C20.568 21.2972 20.9973 20.8679 21.3519 20.3798L20.1384 19.4981ZM19.1982 5.56168C19.559 5.82382 19.8763 6.14111 20.1384 6.50191L21.3519 5.62023C20.9973 5.13209 20.568 4.70281 20.0798 4.34815L19.1982 5.56168ZM5.32031 4.34815C4.83216 4.70281 4.40288 5.13209 4.04823 5.62023L5.26175 6.50191C5.52389 6.14111 5.84118 5.82382 6.20199 5.56168L5.32031 4.34815ZM19.8006 15.3208C17.3402 15.7105 15.4106 17.6401 15.0209 20.1005L16.5024 20.3352C16.7904 18.5166 18.2167 17.0904 20.0352 16.8023L19.8006 15.3208ZM9.70007 14.75H15.7001V13.25H9.70007V14.75ZM21.6711 15.25C20.7889 15.25 20.2579 15.2484 19.8006 15.3208L20.0352 16.8023C20.3471 16.7529 20.7339 16.75 21.6712 16.75L21.6711 15.25ZM20.9501 13C20.9501 14.1731 20.95 15.1456 20.9216 15.9743L22.4207 16.0257C22.4502 15.1658 22.4501 14.1648 22.4501 13H20.9501ZM20.9216 15.9743C20.858 17.8292 20.651 18.7925 20.1384 19.4981L21.3519 20.3798C22.1538 19.2761 22.3565 17.8991 22.4207 16.0257L20.9216 15.9743ZM16.4501 21.9711C16.4501 21.0338 16.453 20.647 16.5024 20.3352L15.0209 20.1005C14.9484 20.5579 14.9501 21.0888 14.9501 21.9711L16.4501 21.9711ZM12.7001 22.75C13.8649 22.75 14.8658 22.7501 15.7258 22.7206L15.6744 21.2215C14.8456 21.2499 13.8731 21.25 12.7001 21.25V22.75ZM15.7258 22.7206C17.5992 22.6564 18.9762 22.4537 20.0798 21.6518L19.1982 20.4383C18.4926 20.9509 17.5293 21.158 15.6744 21.2215L15.7258 22.7206ZM4.45007 13C4.45007 11.8269 4.45017 10.8544 4.47856 10.0257L2.97944 9.97432C2.94998 10.8342 2.95007 11.8352 2.95007 13H4.45007ZM4.47856 10.0257C4.54211 8.17075 4.74914 7.20746 5.26175 6.50191L4.04823 5.62023C3.24637 6.7239 3.04363 8.10087 2.97944 9.97432L4.47856 10.0257ZM3.729 10.75H21.6711V9.25H3.729V10.75ZM22.4501 13C22.4501 11.8352 22.4502 10.8342 22.4207 9.97432L20.9216 10.0257C20.95 10.8544 20.9501 11.8269 20.9501 13H22.4501ZM22.4207 9.97432C22.3565 8.10087 22.1538 6.7239 21.3519 5.62023L20.1384 6.50191C20.651 7.20746 20.858 8.17075 20.9216 10.0257L22.4207 9.97432ZM16.4501 5V4.02893H14.9501V5H16.4501ZM16.4501 4.02893V2H14.9501V4.02893H16.4501ZM12.7001 4.75C13.8731 4.75 14.8456 4.75009 15.6744 4.77849L15.7258 3.27937C14.8658 3.24991 13.8648 3.25 12.7001 3.25V4.75ZM15.6744 4.77849C17.5293 4.84204 18.4926 5.04907 19.1982 5.56168L20.0798 4.34815C18.9762 3.5463 17.5992 3.34356 15.7258 3.27937L15.6744 4.77849ZM10.4501 5V4.02893H8.95007V5H10.4501ZM10.4501 4.02893V2H8.95007V4.02893H10.4501ZM12.7001 3.25C11.5353 3.25 10.5343 3.24991 9.67439 3.27937L9.72575 4.77849C10.5545 4.75009 11.527 4.75 12.7001 4.75V3.25ZM9.67439 3.27937C7.80095 3.34356 6.42397 3.5463 5.32031 4.34815L6.20199 5.56168C6.90753 5.04907 7.87083 4.84204 9.72575 4.77849L9.67439 3.27937Z" fill="#676D75"/>
</svg>
