<svg width="25" height="24" viewBox="0 0 25 24" fill="none" xmlns="http://www.w3.org/2000/svg">
<path d="M5.76102 21.0451L6.20186 20.4383L5.76102 21.0451ZM4.65487 19.9389L5.26163 19.4981L4.65487 19.9389ZM20.745 19.9389L20.1383 19.4981L20.745 19.9389ZM19.6389 21.0451L20.0797 21.6518L19.6389 21.0451ZM19.6389 4.95492L20.0797 4.34815L19.6389 4.95492ZM20.745 6.06107L20.1383 6.50191L20.745 6.06107ZM5.76102 4.95492L6.20186 5.56168H6.20186L5.76102 4.95492ZM4.65487 6.06107L5.26163 6.50191L4.65487 6.06107ZM19.9178 16.0616L19.8005 15.3208H19.8005L19.9178 16.0616ZM15.7615 20.2178L15.0207 20.1005V20.1005L15.7615 20.2178ZM9.69995 13.25C9.28574 13.25 8.94995 13.5858 8.94995 14C8.94995 14.4142 9.28574 14.75 9.69995 14.75V13.25ZM15.7 14.75C16.1142 14.75 16.45 14.4142 16.45 14C16.45 13.5858 16.1142 13.25 15.7 13.25V14.75ZM14.95 5C14.95 5.41421 15.2857 5.75 15.7 5.75C16.1142 5.75 16.45 5.41421 16.45 5H14.95ZM16.45 2C16.45 1.58579 16.1142 1.25 15.7 1.25C15.2857 1.25 14.95 1.58579 14.95 2H16.45ZM8.94995 5C8.94995 5.41421 9.28574 5.75 9.69995 5.75C10.1142 5.75 10.45 5.41421 10.45 5H8.94995ZM10.45 2C10.45 1.58579 10.1142 1.25 9.69995 1.25C9.28574 1.25 8.94995 1.58579 8.94995 2H10.45ZM21.671 16L22.4206 16.0257L21.671 16ZM3.72888 10L2.97932 9.97432L3.72888 10ZM21.671 10L22.4206 9.97432L21.671 10ZM12.7 21.25C10.8084 21.25 9.44994 21.249 8.398 21.135C7.36008 21.0225 6.70987 20.8074 6.20186 20.4383L5.32019 21.6518C6.12651 22.2377 7.07089 22.5 8.23643 22.6263C9.38793 22.751 10.8418 22.75 12.7 22.75V21.25ZM2.94995 13C2.94995 14.8582 2.94892 16.312 3.07368 17.4635C3.19996 18.6291 3.46227 19.5734 4.0481 20.3798L5.26163 19.4981C4.89254 18.9901 4.6774 18.3399 4.56495 17.302C4.45098 16.25 4.44995 14.8916 4.44995 13H2.94995ZM6.20186 20.4383C5.84106 20.1762 5.52377 19.8589 5.26163 19.4981L4.0481 20.3798C4.40276 20.8679 4.83204 21.2972 5.32019 21.6518L6.20186 20.4383ZM20.1383 19.4981C19.8761 19.8589 19.5588 20.1762 19.198 20.4383L20.0797 21.6518C20.5679 21.2972 20.9971 20.8679 21.3518 20.3798L20.1383 19.4981ZM19.198 5.56168C19.5588 5.82382 19.8761 6.14111 20.1383 6.50191L21.3518 5.62023C20.9971 5.13209 20.5679 4.70281 20.0797 4.34815L19.198 5.56168ZM5.32019 4.34815C4.83204 4.70281 4.40276 5.13209 4.0481 5.62023L5.26163 6.50191C5.52377 6.14111 5.84106 5.82382 6.20186 5.56168L5.32019 4.34815ZM19.8005 15.3208C17.3401 15.7105 15.4104 17.6401 15.0207 20.1005L16.5023 20.3352C16.7903 18.5166 18.2166 17.0904 20.0351 16.8023L19.8005 15.3208ZM9.69995 14.75H15.7V13.25H9.69995V14.75ZM21.671 15.25C20.7887 15.25 20.2578 15.2484 19.8005 15.3208L20.0351 16.8023C20.347 16.7529 20.7338 16.75 21.671 16.75L21.671 15.25ZM20.95 13C20.95 14.1731 20.9499 15.1456 20.9215 15.9743L22.4206 16.0257C22.45 15.1658 22.45 14.1648 22.45 13H20.95ZM20.9215 15.9743C20.8579 17.8292 20.6509 18.7925 20.1383 19.4981L21.3518 20.3798C22.1537 19.2761 22.3564 17.8991 22.4206 16.0257L20.9215 15.9743ZM16.45 21.9711C16.45 21.0338 16.4529 20.647 16.5023 20.3352L15.0207 20.1005C14.9483 20.5579 14.95 21.0888 14.95 21.9711L16.45 21.9711ZM12.7 22.75C13.8647 22.75 14.8657 22.7501 15.7256 22.7206L15.6743 21.2215C14.8455 21.2499 13.873 21.25 12.7 21.25V22.75ZM15.7256 22.7206C17.5991 22.6564 18.9761 22.4537 20.0797 21.6518L19.198 20.4383C18.4925 20.9509 17.5292 21.158 15.6743 21.2215L15.7256 22.7206ZM4.44995 13C4.44995 11.8269 4.45005 10.8544 4.47844 10.0257L2.97932 9.97432C2.94986 10.8342 2.94995 11.8352 2.94995 13H4.44995ZM4.47844 10.0257C4.54199 8.17075 4.74902 7.20746 5.26163 6.50191L4.0481 5.62023C3.24625 6.7239 3.04351 8.10087 2.97932 9.97432L4.47844 10.0257ZM3.72888 10.75H21.671V9.25H3.72888V10.75ZM22.45 13C22.45 11.8352 22.45 10.8342 22.4206 9.97432L20.9215 10.0257C20.9499 10.8544 20.95 11.8269 20.95 13H22.45ZM22.4206 9.97432C22.3564 8.10087 22.1537 6.7239 21.3518 5.62023L20.1383 6.50191C20.6509 7.20746 20.8579 8.17075 20.9215 10.0257L22.4206 9.97432ZM16.45 5V4.02893H14.95V5H16.45ZM16.45 4.02893V2H14.95V4.02893H16.45ZM12.7 4.75C13.873 4.75 14.8455 4.75009 15.6743 4.77849L15.7256 3.27937C14.8657 3.24991 13.8647 3.25 12.7 3.25V4.75ZM15.6743 4.77849C17.5292 4.84204 18.4925 5.04907 19.198 5.56168L20.0797 4.34815C18.9761 3.5463 17.5991 3.34356 15.7256 3.27937L15.6743 4.77849ZM10.45 5V4.02893H8.94995V5H10.45ZM10.45 4.02893V2H8.94995V4.02893H10.45ZM12.7 3.25C11.5352 3.25 10.5342 3.24991 9.67427 3.27937L9.72563 4.77849C10.5544 4.75009 11.5269 4.75 12.7 4.75V3.25ZM9.67427 3.27937C7.80083 3.34356 6.42385 3.5463 5.32019 4.34815L6.20186 5.56168C6.90741 5.04907 7.87071 4.84204 9.72563 4.77849L9.67427 3.27937Z" fill="#EE3338"/>
</svg>
