<svg width="16" height="16" viewBox="0 0 16 16" fill="none" xmlns="http://www.w3.org/2000/svg">
<g clip-path="url(#clip0_60_158)">
<path d="M14.4816 0.319954C14.1551 0.693287 14.0898 2.73773 14.3837 2.95107C14.498 3.02218 14.4163 3.14662 14.1714 3.27106C13.8775 3.43106 13.7143 3.82218 13.3551 5.2444C13.1265 6.22218 12.9143 7.05773 12.9143 7.11106C12.898 7.14662 12.8163 7.09329 12.702 6.96884C12.2449 6.47107 12.0653 6.95107 12.5061 7.4844C12.751 7.78662 12.7347 7.92884 12.3918 9.49329L12.0163 11.2H8.19591C5.87754 11.2 4.26122 11.2711 4.0653 11.3777C3.60816 11.6444 3.60816 13.2444 4.0653 13.5111C4.26122 13.6177 6.05714 13.6888 8.78367 13.6888C12.8326 13.6888 13.1918 13.6711 13.4367 13.3688C13.6 13.1911 13.7143 12.9777 13.7143 12.9066C13.7143 12.8355 13.8122 12.6577 13.9429 12.5333C14.0571 12.4088 14.5796 10.4711 15.0857 8.24884L16.0163 4.19551L15.7061 3.73329C15.3796 3.27106 15.3796 3.25329 15.6898 3.05773C16.1306 2.75551 16.1469 0.728843 15.7061 0.302176C15.3143 -0.0889349 14.8082 -0.0711575 14.4816 0.319954Z" fill="#ECFE72"/>
<path d="M5.35509 1.0489C4.83264 1.19112 4.40815 1.38668 4.40815 1.45779C4.40815 1.5289 4.48978 1.60001 4.57141 1.60001C4.66937 1.60001 4.63672 1.81334 4.50611 2.11557C4.27754 2.57779 4.27754 2.6489 4.48978 2.73779C4.62039 2.79112 4.73468 2.77334 4.73468 2.70223C4.73468 2.61334 4.83264 2.41779 4.94692 2.24001C5.15917 1.92001 5.19182 1.92001 5.58366 2.20446C5.92651 2.45334 6.12243 2.47112 6.82447 2.31112C7.26529 2.20446 7.77141 2.13334 7.93468 2.1689C8.60407 2.29334 8.24488 1.81334 7.31427 1.31557C6.2857 0.782233 6.2857 0.782233 5.35509 1.0489Z" fill="#ECFE72"/>
<path d="M8.48978 2.39996C8.48978 2.54218 8.57141 2.66663 8.65304 2.66663C8.751 2.66663 8.81631 2.54218 8.81631 2.39996C8.81631 2.25774 8.751 2.13329 8.65304 2.13329C8.57141 2.13329 8.48978 2.25774 8.48978 2.39996Z" fill="#ECFE72"/>
<path d="M5.07755 2.54227C4.79999 2.8445 4.84897 2.98672 5.37142 3.27116C5.71428 3.46672 5.87755 3.4845 6.02448 3.3245C6.30204 3.02227 6.25306 2.88005 5.73061 2.59561C5.38775 2.40005 5.22448 2.38227 5.07755 2.54227Z" fill="#ECFE72"/>
<path d="M10.1224 2.75553C10.1224 2.89775 10.3347 3.12887 10.6122 3.28887C11.2 3.60887 11.2653 3.62664 11.2653 3.32442C11.2653 3.19998 11.0041 2.95109 10.6939 2.79109C10.2041 2.5422 10.1224 2.5422 10.1224 2.75553Z" fill="#ECFE72"/>
<path d="M7.29795 3.14666C7.24897 3.41333 7.29795 3.82221 7.37959 4.0711L7.55918 4.53333L7.70612 3.9111C7.93469 2.91555 7.93469 2.77333 7.65714 2.70221C7.47755 2.66666 7.36326 2.80888 7.29795 3.14666Z" fill="#ECFE72"/>
<path d="M3.00407 3.48445C1.99183 4.21334 1.4857 4.8 0.718357 6.15111C0.0326432 7.36 -0.146949 8.08889 0.0979493 8.78222C0.212235 9.08445 2.43264 10.4889 2.80815 10.4889C3.16734 10.4889 4.01632 9.42222 4.39183 8.53334C4.6204 7.98222 4.73468 7.36 4.73468 6.50667C4.73468 5.6 4.81632 5.13778 5.06121 4.69334L5.40407 4.10667L4.66938 3.57334C4.26121 3.27111 3.86938 3.02222 3.78774 3.02222C3.70611 3.02222 3.34693 3.23556 3.00407 3.48445Z" fill="#ECFE72"/>
<path d="M9.14285 3.60889C9.14285 3.96444 9.9102 4.67555 10.1224 4.53333C10.2531 4.44444 10.1714 4.24889 9.86122 3.89333C9.37142 3.32444 9.14285 3.25333 9.14285 3.60889Z" fill="#ECFE72"/>
<path d="M11.951 3.94663C12.049 4.26663 12.849 4.72885 13.0122 4.56885C13.1592 4.40885 12.4408 3.75107 12.1143 3.7333C11.9837 3.7333 11.9184 3.83996 11.951 3.94663Z" fill="#ECFE72"/>
<path d="M8.32651 4.55106C8.32651 4.81773 8.91426 5.68884 9.09385 5.68884C9.37141 5.68884 9.35508 5.58218 9.02855 4.95995C8.78365 4.51551 8.32651 4.24884 8.32651 4.55106Z" fill="#ECFE72"/>
<path d="M10.6122 5.20886C10.6122 5.56442 11.3796 6.27553 11.5918 6.13331C11.7224 6.04442 11.6408 5.84886 11.3306 5.49331C10.8408 4.92442 10.6122 4.85331 10.6122 5.20886Z" fill="#ECFE72"/>
<path d="M9.46939 6.63115C9.46939 7.00448 10.0735 7.76892 10.2204 7.59115C10.3674 7.43115 9.92653 6.54226 9.64898 6.43559C9.55102 6.40004 9.46939 6.48892 9.46939 6.63115Z" fill="#ECFE72"/>
<path d="M10.449 8.56886C10.4653 8.90664 11.0531 9.70664 11.2 9.56441C11.3633 9.36886 10.9388 8.35553 10.6775 8.35553C10.5469 8.35553 10.449 8.46219 10.449 8.56886Z" fill="#ECFE72"/>
<path d="M5.35509 15.0578L5.81224 15.9111L8.53877 15.9644L11.249 16L11.6408 15.3422C11.8531 14.9689 12.0816 14.56 12.1469 14.4356C12.2449 14.2756 11.4775 14.2222 8.58775 14.2222H4.91428L5.35509 15.0578Z" fill="#ECFE72"/>
</g>
<defs>
<clipPath id="clip0_60_158">
<rect width="16" height="16" fill="white"/>
</clipPath>
</defs>
</svg>
