<svg width="16" height="16" viewBox="0 0 16 16" fill="none" xmlns="http://www.w3.org/2000/svg">
<g clip-path="url(#clip0_60_174)">
<path d="M4.20618 0.263915C3.39793 0.544328 2.96906 1.03917 2.96906 1.66598C2.96906 2.45773 3.41443 2.91959 5.12989 3.97526C6.86185 5.04742 7.62061 5.7567 8.09896 6.82887C8.49484 7.6866 8.49484 8.49484 8.08247 9.31959C7.68659 10.1443 6.82886 11.167 6.66391 11.0021C6.59793 10.9361 6.49896 9.88041 6.44948 8.67629C6.35051 6.63093 6.31752 6.43299 5.95463 6.03711C5.22886 5.26185 3.36494 5.26185 2.58968 6.02062C2.2103 6.41649 2.17731 6.58144 2.09484 8.54433C2.04535 9.69897 1.8804 11.5299 1.74845 12.6186C1.35257 15.6206 1.63298 16 4.28865 16C6.79587 16 7.19175 15.5876 6.89484 13.2784L6.71339 11.8763L7.57113 10.9691C8.57731 9.89691 8.90721 9.20412 8.90721 8.13196C8.90721 6.44948 7.73607 4.88247 5.59175 3.61237C3.38144 2.34227 2.98556 1.5835 4.1237 0.923709C4.84948 0.494843 6.20205 0.478348 6.82886 0.874225C7.25772 1.17113 7.25772 1.17113 6.99381 1.64948C6.72989 2.07835 6.72989 2.14433 6.97731 2.52371C7.29071 3.00206 7.90102 3.06804 8.79175 2.68866C9.50102 2.39175 9.53401 2.21031 9.05566 1.30309C8.80824 0.79175 8.65979 0.659792 8.44535 0.742266C7.85154 0.989689 7.58762 1.02268 7.58762 0.841235C7.58762 0.527833 6.25154 -1.90735e-06 5.52577 0.0164928C5.16288 0.0164928 4.56906 0.131956 4.20618 0.263915ZM5.60824 6.43299C5.87216 6.69691 5.93814 6.97732 5.93814 7.91752C5.93814 8.54433 5.90515 9.07216 5.87216 9.07216C5.83917 9.07216 5.59175 8.9567 5.34432 8.82474C4.73401 8.51134 3.94226 8.51134 3.21649 8.80825L2.63917 9.05567V7.90103C2.63917 6.3835 2.90309 6.10309 4.28865 6.10309C5.06391 6.10309 5.34432 6.16907 5.60824 6.43299ZM5.49278 9.73196C5.98762 10.2928 6.0536 10.8371 5.69071 11.5464C4.93195 12.9979 2.63917 12.4371 2.63917 10.8041C2.63917 10.3258 2.77113 10.0619 3.21649 9.61649C3.74432 9.08866 3.87628 9.03917 4.42061 9.12165C4.81649 9.18763 5.19587 9.40206 5.49278 9.73196ZM2.63917 14.4495C2.63917 14.5979 2.78762 14.7464 2.96906 14.7959C3.31546 14.8948 3.41443 15.2577 3.13401 15.4227C3.03504 15.4887 2.77113 15.4062 2.55669 15.2742C2.09484 14.9608 1.97937 14.1856 2.39174 14.1856C2.5237 14.1856 2.63917 14.301 2.63917 14.4495Z" fill="#ECFE72"/>
<path d="M3.36495 10.1444C2.82062 10.9856 3.66185 12.1072 4.58556 11.7774C5.19587 11.5629 5.52577 10.8536 5.26185 10.3588C4.94845 9.74849 4.71752 9.699 4.61855 10.1938C4.50309 10.7877 4.05773 10.7712 3.99175 10.1774C3.92577 9.61653 3.71134 9.60003 3.36495 10.1444Z" fill="#ECFE72"/>
<path d="M9.15464 3.13399C9.10516 3.21646 9.3031 3.76079 9.6 4.35461C9.97938 5.11337 10.2103 5.39378 10.3588 5.29482C10.5237 5.19585 10.4577 4.91543 10.0784 4.0742C9.6 3.01853 9.36908 2.7876 9.15464 3.13399Z" fill="#ECFE72"/>
<path d="M10.2268 6.18559C10.0948 6.53199 10.1443 6.7959 10.4082 7.4392C10.7876 8.31343 10.9691 8.37941 11.7113 8.00003C12.3052 7.68662 12.3217 7.38972 11.8268 6.51549C11.5299 5.98766 11.3485 5.8392 10.9196 5.80621C10.4742 5.75673 10.3588 5.82271 10.2268 6.18559Z" fill="#ECFE72"/>
<path d="M11.7608 8.67629C11.7113 8.80825 11.8763 9.78144 12.1237 10.8371C12.4206 12.1072 12.5196 12.7835 12.4041 12.899C12.1732 13.1299 11.9588 12.6845 11.7113 11.4639C11.5959 10.9196 11.4474 10.4082 11.3814 10.3423C11.3155 10.2598 11.068 10.4412 10.8206 10.7216C10.5072 11.101 10.3918 11.4309 10.3918 11.9258C10.3918 13.0804 10.8701 13.6412 12.2557 14.0866C12.4041 14.1361 12.5361 14.334 12.5361 14.532C12.5361 15.0268 13.5588 16 14.0866 16C15.5546 16 16.3299 14.4 15.4392 13.2784L15.0433 12.7835L15.4392 12.3216C15.6536 12.0577 15.8351 11.6454 15.8351 11.3979C15.8351 10.8371 15.1753 10.1773 14.6804 10.2598L14.3175 10.3093L14.6639 10.7546C14.8619 10.9856 15.0103 11.266 15.0103 11.3649C15.0103 11.8598 14.4825 11.3979 13.3773 9.97938C12.7175 9.12165 12.0907 8.41237 12.0082 8.41237C11.9258 8.41237 11.8268 8.52783 11.7608 8.67629Z" fill="#ECFE72"/>
<path d="M0.164948 14.9278V16H0.824741C1.53402 16 1.6 15.9175 1.23711 15.4392C1.10515 15.2577 0.98969 14.8289 0.98969 14.4825C0.98969 13.9216 0.940205 13.8557 0.577319 13.8557C0.181442 13.8557 0.164948 13.8887 0.164948 14.9278Z" fill="#ECFE72"/>
<path d="M7.58763 14.3835C7.58763 14.6804 7.47217 15.1423 7.34021 15.4062C7.01031 16.033 7.01031 16.033 7.71959 15.967L8.3299 15.9175L8.37939 14.8783C8.42887 13.8721 8.41238 13.8557 8.00001 13.8557C7.63712 13.8557 7.58763 13.9216 7.58763 14.3835Z" fill="#ECFE72"/>
</g>
<defs>
<clipPath id="clip0_60_174">
<rect width="16" height="16" fill="white"/>
</clipPath>
</defs>
</svg>
