<svg width="25" height="24" viewBox="0 0 25 24" fill="none" xmlns="http://www.w3.org/2000/svg">
<g clip-path="url(#clip0_60_201)">
<path d="M3.66698 15.8197L4.38027 15.5879L3.66698 15.8197ZM2.55648 9.65157L3.27779 9.85703L2.55648 9.65157ZM7.19369 4.96556L6.75285 4.3588L7.19369 4.96556ZM2.66976 9.30291L3.37408 9.56067L2.66976 9.30291ZM6.69066 21.678L6.27236 22.3005L6.69066 21.678ZM6.39408 21.4625L5.93129 22.0527L6.39408 21.4625ZM22.1331 15.8197L21.4198 15.5879L22.1331 15.8197ZM19.406 21.4625L19.8688 22.0527L19.406 21.4625ZM19.1094 21.678L19.5277 22.3005L19.1094 21.678ZM18.6064 4.96556L19.0472 4.3588L18.6064 4.96556ZM23.1303 9.30291L22.426 9.56067L23.1303 9.30291ZM23.2436 9.65157L22.5223 9.85703L23.2436 9.65157ZM13.0833 2.00336L13.0558 2.75286L13.0833 2.00336ZM12.7167 2.00336L12.7442 2.75286L12.7167 2.00336ZM10.9 17.0697C10.4858 17.0697 10.15 17.4054 10.15 17.8197C10.15 18.2339 10.4858 18.5697 10.9 18.5697V17.0697ZM14.9 18.5697C15.3142 18.5697 15.65 18.2339 15.65 17.8197C15.65 17.4054 15.3142 17.0697 14.9 17.0697V18.5697ZM4.38027 15.5879C3.86592 14.0049 3.49953 12.874 3.30728 11.9558C3.11863 11.055 3.11456 10.4301 3.27779 9.85703L1.83517 9.44611C1.58095 10.3386 1.62281 11.2303 1.83912 12.2633C2.05182 13.2791 2.44941 14.4994 2.95369 16.0514L4.38027 15.5879ZM6.75285 4.3588C5.43263 5.31799 4.39367 6.07158 3.62453 6.76835C2.84234 7.47693 2.28438 8.17368 1.96545 9.04515L3.37408 9.56067C3.57885 9.00112 3.94944 8.49798 4.63159 7.88002C5.32678 7.25026 6.28794 6.55068 7.63453 5.57232L6.75285 4.3588ZM3.27779 9.85703C3.30625 9.7571 3.33837 9.65824 3.37408 9.56067L1.96545 9.04515C1.91713 9.17717 1.87368 9.31091 1.83517 9.44611L3.27779 9.85703ZM12.9 21.7779C11.2355 21.7779 10.0468 21.7768 9.11417 21.676C8.19908 21.577 7.60352 21.3878 7.10896 21.0555L6.27236 22.3005C7.04263 22.8181 7.90357 23.0538 8.95286 23.1673C9.98466 23.2789 11.2681 23.2779 12.9 23.2779V21.7779ZM2.95369 16.0514C3.45797 17.6034 3.85362 18.8244 4.2786 19.7712C4.71079 20.7341 5.20102 21.4801 5.93129 22.0527L6.85686 20.8723C6.38798 20.5046 6.02398 19.9967 5.64707 19.157C5.26295 18.3012 4.89463 17.1709 4.38027 15.5879L2.95369 16.0514ZM7.10896 21.0555C7.02272 20.9975 6.93863 20.9364 6.85686 20.8723L5.93129 22.0527C6.04191 22.1394 6.15568 22.2221 6.27236 22.3005L7.10896 21.0555ZM21.4198 15.5879C20.9054 17.1709 20.5371 18.3012 20.153 19.157C19.7761 19.9967 19.4121 20.5046 18.9432 20.8723L19.8688 22.0527C20.599 21.4801 21.0893 20.7341 21.5215 19.7712C21.9464 18.8244 22.3421 17.6034 22.8464 16.0514L21.4198 15.5879ZM12.9 23.2779C14.5319 23.2779 15.8154 23.2789 16.8472 23.1673C17.8965 23.0538 18.7574 22.8181 19.5277 22.3005L18.6911 21.0555C18.1965 21.3878 17.601 21.577 16.6859 21.676C15.7533 21.7768 14.5645 21.7779 12.9 21.7779V23.2779ZM18.9432 20.8723C18.8614 20.9364 18.7773 20.9975 18.6911 21.0555L19.5277 22.3005C19.6444 22.2221 19.7581 22.1394 19.8688 22.0527L18.9432 20.8723ZM18.1655 5.57232C19.5121 6.55068 20.4733 7.25026 21.1685 7.88002C21.8506 8.49798 22.2212 9.00112 22.426 9.56067L23.8346 9.04515C23.5157 8.17368 22.9577 7.47693 22.1755 6.76835C21.4064 6.07158 20.3674 5.31799 19.0472 4.3588L18.1655 5.57232ZM22.8464 16.0514C23.3507 14.4994 23.7482 13.2791 23.9609 12.2633C24.1772 11.2303 24.2191 10.3386 23.9649 9.44611L22.5223 9.85703C22.6855 10.4301 22.6814 11.055 22.4928 11.9558C22.3005 12.874 21.9341 14.0049 21.4198 15.5879L22.8464 16.0514ZM22.426 9.56067C22.4617 9.65824 22.4938 9.75709 22.5223 9.85703L23.9649 9.44611C23.9264 9.31091 23.8829 9.17717 23.8346 9.04515L22.426 9.56067ZM19.0472 4.3588C17.727 3.3996 16.6892 2.64436 15.7889 2.12818C14.8733 1.60323 14.0382 1.28789 13.1108 1.25387L13.0558 2.75286C13.6513 2.7747 14.2443 2.97167 15.0428 3.42948C15.8566 3.89603 16.8189 4.59396 18.1655 5.57232L19.0472 4.3588ZM7.63453 5.57232C8.98112 4.59396 9.94347 3.89603 10.7572 3.42948C11.5557 2.97167 12.1488 2.7747 12.7442 2.75286L12.6892 1.25387C11.7619 1.28789 10.9268 1.60323 10.0112 2.12818C9.11084 2.64436 8.07307 3.3996 6.75285 4.3588L7.63453 5.57232ZM13.1108 1.25387C12.9703 1.24871 12.8297 1.24871 12.6892 1.25387L12.7442 2.75286C12.8481 2.74905 12.952 2.74905 13.0558 2.75286L13.1108 1.25387ZM10.9 18.5697H14.9V17.0697H10.9V18.5697Z" fill="#676D75"/>
</g>
<defs>
<clipPath id="clip0_60_201">
<rect width="24" height="24" fill="white" transform="translate(0.900024)"/>
</clipPath>
</defs>
</svg>
