<svg width="24" height="25" viewBox="0 0 24 25" fill="none" xmlns="http://www.w3.org/2000/svg">
<path d="M16.1831 3.85196C15.3084 3.01769 14.1224 2.5 12.8029 2.5H11.0999C8.15552 2.5 5.87737 5.08064 6.24258 8.00234L6.32194 8.63719C6.46808 9.80631 6.04102 10.9741 5.17514 11.7731C3.99242 12.8645 3.66383 14.6016 4.36619 16.0496L4.46954 16.2627C5.13331 17.6311 6.52054 18.5 8.04144 18.5H16.2623C17.5656 18.5 18.7785 17.8342 19.4783 16.7347C20.4661 15.1826 20.2045 13.1465 18.8564 11.8945L18.8125 11.8538C18.5689 11.6275 18.3582 11.3738 18.1831 11.0999M8.18311 18.5L8.58311 19.1857C10.3831 22.2714 13.9831 22.2714 15.7831 19.1857L16.1831 18.5" stroke="#FAFAFA" stroke-width="1.5" stroke-linecap="round"/>
<path d="M19.1832 7.5C19.1832 8.60457 18.2878 9.5 17.1832 9.5C16.0787 9.5 15.1832 8.60457 15.1832 7.5C15.1832 6.39543 16.0787 5.5 17.1832 5.5C18.2878 5.5 19.1832 6.39543 19.1832 7.5Z" fill="#FAFAFA"/>
</svg>
