<svg width="16" height="16" viewBox="0 0 16 16" fill="none" xmlns="http://www.w3.org/2000/svg">
<g clip-path="url(#clip0_60_4)">
<path d="M1.21213 0.226275C-0.937368 1.03436 0.0161674 2.81213 2.58586 2.81213C4.81617 2.81213 5.93132 1.40607 4.42829 0.484861C3.68485 0.0161741 2.11718 -0.0969572 1.21213 0.226275ZM3.71718 0.96971C4.10506 1.35759 4.12122 1.5192 3.78182 1.84244C3.44243 2.18183 2.84445 2.32729 2.16566 2.21415C0.533339 1.93941 0.905056 0.646477 2.61819 0.646477C3.18384 0.646477 3.49092 0.743447 3.71718 0.96971Z" fill="#ECFE72"/>
<path d="M1.85859 1.30914C1.68081 1.56773 1.90708 1.69702 2.58586 1.69702C3.29697 1.69702 3.58788 1.50308 3.23233 1.29298C2.9091 1.08288 1.98788 1.09904 1.85859 1.30914Z" fill="#ECFE72"/>
<path d="M5.25253 0.387946L5.65657 0.791986V7.51522V14.2223H10.8283H16L15.9677 7.1435L15.9192 0.0808754L10.3919 0.0323906L4.86465 6.67572e-05L5.25253 0.387946Z" fill="#ECFE72"/>
<path d="M0 8.75963V14.8849L0.387879 15.2728C1.34141 16.2263 3.71717 16.2263 4.75152 15.2728L5.17172 14.8849V8.75963V2.63438L4.41212 3.0061C3.84646 3.29701 3.39394 3.39398 2.58586 3.39398C1.77778 3.39398 1.32525 3.29701 0.759596 3.0061L0 2.63438V8.75963Z" fill="#ECFE72"/>
</g>
<defs>
<clipPath id="clip0_60_4">
<rect width="16" height="16" fill="white"/>
</clipPath>
</defs>
</svg>
