<svg width="16" height="16" viewBox="0 0 16 16" fill="none" xmlns="http://www.w3.org/2000/svg">
<path d="M10.4314 2.21184C10.0863 2.36871 9.49017 2.50988 9.09802 2.50988C8.59606 2.50988 8.26664 2.61969 7.92155 2.88635L7.45096 3.27851L8.78429 4.61184C9.94508 5.78832 10.1333 5.92949 10.3372 5.72557C10.5412 5.52165 10.5255 5.4589 10.2902 5.19224C9.89802 4.75302 10.0706 4.31381 11.0902 3.26283C12.3294 2.00792 11.9843 1.47459 10.4314 2.21184ZM9.53723 3.43537C9.83527 3.60792 9.70978 4.14126 9.36468 4.204C9.06664 4.26675 8.86272 3.89028 9.0039 3.52949C9.09802 3.26283 9.23919 3.23145 9.53723 3.43537Z" fill="#ECFE72"/>
<path d="M11.2784 3.56084C10.8706 3.98437 10.5098 4.42359 10.4627 4.56476C10.3529 4.90986 11.0745 5.27064 11.3882 5.00398C11.6706 4.76868 11.8588 4.92555 11.9686 5.44319C12.0471 5.80398 11.9372 6.0079 11.3412 6.61966C10.5569 7.40398 10.5412 7.65496 11.2157 8.09417L11.6392 8.36084L13.6784 6.32162C15.5294 4.47064 15.702 4.25104 15.5451 3.953C15.451 3.76476 15.2157 3.52947 15.0431 3.43535C14.7451 3.27849 14.6196 3.35692 13.9608 4.00006C13.3333 4.61182 13.1608 4.70594 12.8 4.61182C12.3137 4.50202 12.1412 4.26672 12.3608 4.04711C12.4706 3.93731 12.4392 3.76476 12.298 3.48241C12.1882 3.2628 12.1255 3.02751 12.1725 2.94908C12.4078 2.57261 11.8902 2.9177 11.2784 3.56084Z" fill="#ECFE72"/>
<path d="M6.98038 4.26671C6.85489 4.54906 5.63136 5.91377 4.23528 7.29416C1.56862 9.94514 1.17646 10.4628 1.33332 11.0902C1.39607 11.3883 1.31764 11.5765 0.956853 11.9059C0.407833 12.4079 0.203912 13.051 0.407833 13.6157C0.658814 14.3373 0.956853 14.2275 0.847049 13.4275C0.752931 12.7687 0.784304 12.6902 1.33332 12.1883C1.85097 11.7177 1.89803 11.5922 1.80391 11.153C1.67842 10.5883 1.80391 10.5569 2.94901 10.8236C4.17254 11.1059 4.58038 10.8863 6.82352 8.62749C8.12548 7.32553 8.97254 6.58828 9.17646 6.58828C9.3647 6.58828 9.5843 6.50985 9.69411 6.40004C9.85097 6.24318 9.63136 5.94514 8.6745 4.98828C7.99999 4.31377 7.40391 3.76475 7.32548 3.76475C7.26274 3.76475 7.10587 4.00004 6.98038 4.26671ZM5.56862 8.37651C5.56862 8.83141 5.08234 9.06671 4.7843 8.76867C4.42352 8.40789 4.64313 7.96867 5.16077 8.03141C5.44313 8.06279 5.56862 8.17259 5.56862 8.37651Z" fill="#ECFE72"/>
<path d="M13.8196 6.65103L13.3176 7.16868L13.7568 7.2628C14.3215 7.3726 14.7294 7.0275 14.6196 6.50986C14.5255 5.99221 14.4314 6.0079 13.8196 6.65103Z" fill="#ECFE72"/>
</svg>
