<svg width="16" height="16" viewBox="0 0 16 16" fill="none" xmlns="http://www.w3.org/2000/svg">
<path d="M4.03333 4.19996L0.833328 7.04996V8.56663C0.833328 10.1666 1.24999 13.6166 1.51666 14.35C1.61666 14.6 1.88333 14.8666 2.09999 14.9833C2.38333 15.1 4.38333 15.1666 8.43333 15.1666H14.35L14.75 14.75L15.1667 14.35V8.03329C15.1667 3.34996 15.1167 1.6833 14.9667 1.53329C14.8167 1.3833 13.7 1.33329 11 1.33329H7.23333L4.03333 4.19996ZM14.1667 5.74996V9.33329H7.99999H1.83333V8.36663V7.39996L4.76666 4.78329L7.68333 2.16663H10.9333H14.1667V5.74996ZM14.0833 10.4166V10.9166L12.4667 10.9666C10.9667 11.0166 10.85 10.9833 10.75 10.6666C10.5333 9.98329 10.9167 9.81663 12.5667 9.86663L14.0833 9.91663V10.4166Z" fill="#ECFE72"/>
<path d="M5.06666 5.01659C2.41666 7.38325 2.24999 7.56659 2.19999 8.18325L2.14999 8.83325H7.98333H13.8333V6.83325V4.84992L13.2167 4.73325C12.8667 4.66658 12.3833 4.69992 12.0833 4.81659C11.8 4.91658 11.5167 4.99992 11.45 4.99992C11.3833 4.99992 11.3333 4.43325 11.3333 3.74992V2.49992H9.61666H7.89999L5.06666 5.01659Z" fill="#ECFE72"/>
<path d="M12.1667 2.63324C12.1667 2.6999 12.55 3.13324 13 3.58324L13.8333 4.3999V3.4499V2.4999H13C12.55 2.4999 12.1667 2.56657 12.1667 2.63324Z" fill="#ECFE72"/>
<path d="M11.8333 3.71656V4.43323L12.5167 4.36656L13.2 4.29989L12.5667 3.64989C12.2167 3.28323 11.9167 2.99989 11.8833 2.99989C11.85 2.99989 11.8333 3.31656 11.8333 3.71656Z" fill="#ECFE72"/>
<path d="M11.1167 10.2666C10.85 10.55 11.2833 10.6666 12.5167 10.6666C13.5833 10.6666 13.8333 10.6166 13.8333 10.4166C13.8333 10.2166 13.5833 10.1666 12.5333 10.1666C11.8167 10.1666 11.1667 10.2166 11.1167 10.2666Z" fill="#ECFE72"/>
</svg>
